<mxfile host="app.diagrams.net" modified="2023-12-26T15:15:11.590Z" agent="Mozilla/5.0 (Windows NT 10.0; Win64; x64) AppleWebKit/537.36 (KHTML, like Gecko) Chrome/120.0.0.0 Safari/537.36" etag="S7ahur_sQnaYODopO8ec" version="22.1.11" type="github">
  <diagram name="系统功能" id="VV4417I0wdI1PhkH-pq5">
    <mxGraphModel dx="1434" dy="818" grid="1" gridSize="10" guides="1" tooltips="1" connect="1" arrows="1" fold="1" page="1" pageScale="1" pageWidth="827" pageHeight="1169" math="0" shadow="0">
      <root>
        <mxCell id="0" />
        <mxCell id="1" parent="0" />
        <mxCell id="Yb6XYb1sn83ZiJOY77YM-1" value="系统功能" style="rounded=0;whiteSpace=wrap;html=1;" vertex="1" parent="1">
          <mxGeometry x="340" y="220" width="186" height="60" as="geometry" />
        </mxCell>
        <mxCell id="Yb6XYb1sn83ZiJOY77YM-2" value="前台管理" style="rounded=0;whiteSpace=wrap;html=1;" vertex="1" parent="1">
          <mxGeometry x="300" y="350" width="60" height="220" as="geometry" />
        </mxCell>
        <mxCell id="Yb6XYb1sn83ZiJOY77YM-4" value="后台管理" style="rounded=0;whiteSpace=wrap;html=1;verticalAlign=middle;" vertex="1" parent="1">
          <mxGeometry x="470" y="350" width="70" height="220" as="geometry" />
        </mxCell>
      </root>
    </mxGraphModel>
  </diagram>
</mxfile>
